<svg width="101" height="18" viewBox="0 0 101 18" fill="none" xmlns="http://www.w3.org/2000/svg">
<path d="M15.7074 6.34943H11.9744C11.9062 5.86647 11.767 5.43749 11.5568 5.06249C11.3466 4.68181 11.0767 4.35795 10.7472 4.0909C10.4176 3.82386 10.0369 3.61931 9.60511 3.47727C9.17898 3.33522 8.71591 3.2642 8.21591 3.2642C7.3125 3.2642 6.52557 3.48863 5.85511 3.93749C5.18466 4.38068 4.66477 5.0284 4.29545 5.88068C3.92614 6.72727 3.74148 7.75568 3.74148 8.9659C3.74148 10.2102 3.92614 11.2557 4.29545 12.1023C4.67045 12.9489 5.19318 13.5881 5.86364 14.0199C6.53409 14.4517 7.30966 14.6676 8.19034 14.6676C8.68466 14.6676 9.14205 14.6023 9.5625 14.4716C9.98864 14.3409 10.3665 14.1506 10.696 13.9006C11.0256 13.6449 11.2983 13.3352 11.5142 12.9716C11.7358 12.6079 11.8892 12.1932 11.9744 11.7273L15.7074 11.7443C15.6108 12.5454 15.3693 13.3182 14.983 14.0625C14.6023 14.8011 14.0881 15.4631 13.4403 16.0483C12.7983 16.6278 12.0312 17.0881 11.1392 17.429C10.2528 17.7642 9.25 17.9318 8.13068 17.9318C6.57386 17.9318 5.18182 17.5795 3.95455 16.875C2.73295 16.1704 1.76704 15.1506 1.05682 13.8153C0.352272 12.4801 -6.85453e-07 10.8636 -6.85453e-07 8.9659C-6.85453e-07 7.06249 0.357954 5.44318 1.07386 4.10795C1.78977 2.77272 2.76136 1.75568 3.98864 1.05681C5.21591 0.352267 6.59659 -6.19888e-06 8.13068 -6.19888e-06C9.14205 -6.19888e-06 10.0795 0.142039 10.9432 0.42613C11.8125 0.710221 12.5824 1.12499 13.2528 1.67045C13.9233 2.21022 14.4687 2.87215 14.8892 3.65624C15.3153 4.44033 15.5881 5.33806 15.7074 6.34943ZM34.3935 8.9659C34.3935 10.8693 34.0327 12.4886 33.3111 13.8239C32.5952 15.1591 31.6179 16.179 30.3793 16.8835C29.1463 17.5824 27.7599 17.9318 26.2202 17.9318C24.669 17.9318 23.277 17.5795 22.044 16.875C20.8111 16.1704 19.8366 15.1506 19.1207 13.8153C18.4048 12.4801 18.0469 10.8636 18.0469 8.9659C18.0469 7.06249 18.4048 5.44318 19.1207 4.10795C19.8366 2.77272 20.8111 1.75568 22.044 1.05681C23.277 0.352267 24.669 -6.19888e-06 26.2202 -6.19888e-06C27.7599 -6.19888e-06 29.1463 0.352267 30.3793 1.05681C31.6179 1.75568 32.5952 2.77272 33.3111 4.10795C34.0327 5.44318 34.3935 7.06249 34.3935 8.9659ZM30.652 8.9659C30.652 7.73295 30.4673 6.69318 30.098 5.84659C29.7344 4.99999 29.2202 4.35795 28.5554 3.92045C27.8906 3.48295 27.1122 3.2642 26.2202 3.2642C25.3281 3.2642 24.5497 3.48295 23.8849 3.92045C23.2202 4.35795 22.7031 4.99999 22.3338 5.84659C21.9702 6.69318 21.7884 7.73295 21.7884 8.9659C21.7884 10.1989 21.9702 11.2386 22.3338 12.0852C22.7031 12.9318 23.2202 13.5739 23.8849 14.0114C24.5497 14.4489 25.3281 14.6676 26.2202 14.6676C27.1122 14.6676 27.8906 14.4489 28.5554 14.0114C29.2202 13.5739 29.7344 12.9318 30.098 12.0852C30.4673 11.2386 30.652 10.1989 30.652 8.9659ZM37.1271 17.6932V0.23863H48.6839V3.28124H40.8175V7.44034H47.9169V10.4829H40.8175V17.6932H37.1271ZM54.8565 0.23863V17.6932H51.1662V0.23863H54.8565ZM57.8928 17.6932V0.23863H69.6541V3.28124H61.5831V7.44034H69.049V10.4829H61.5831V14.6506H69.6882V17.6932H57.8928ZM72.5881 17.6932V0.23863H76.2784V14.6506H83.7614V17.6932H72.5881ZM92.3928 17.6932H86.2053V0.23863H92.4439C94.1996 0.23863 95.7109 0.588062 96.978 1.28693C98.245 1.98011 99.2195 2.97727 99.9013 4.2784C100.589 5.57954 100.933 7.13636 100.933 8.94886C100.933 10.767 100.589 12.3295 99.9013 13.6364C99.2195 14.9432 98.2393 15.946 96.9609 16.6449C95.6882 17.3437 94.1655 17.6932 92.3928 17.6932ZM89.8956 14.5312H92.2393C93.3303 14.5312 94.2479 14.3381 94.9922 13.9517C95.7422 13.5597 96.3047 12.9545 96.6797 12.1364C97.0604 11.3125 97.2507 10.25 97.2507 8.94886C97.2507 7.65909 97.0604 6.60511 96.6797 5.78693C96.3047 4.96874 95.745 4.36647 95.0007 3.98011C94.2564 3.59374 93.3388 3.40056 92.2479 3.40056H89.8956V14.5312Z" fill="#008573"/>
</svg>
